<svg xmlns="http://www.w3.org/2000/svg" viewBox="0 0 200 100" width="200" height="100">
  <ellipse cx="100" cy="86" rx="94" ry="6" fill="#14213D" opacity="0.08"/>
  <path d="M10 70 L10 34 Q10 24 20 24 L150 24 Q168 24 178 40 L188 58 Q188 70 178 70 Z" fill="#F2A63A"/>
  <path d="M20 32 h30 v18 h-30 z" fill="#14213D"/>
  <path d="M56 32 h30 v18 h-30 z" fill="#14213D"/>
  <path d="M92 32 h30 v18 h-30 z" fill="#14213D"/>
  <path d="M128 32 L150 32 Q160 32 166 42 L170 50 L128 50 Z" fill="#0F1830"/>
  <circle cx="46" cy="74" r="14" fill="#14213D"/>
  <circle cx="46" cy="74" r="5" fill="#D9DEE8"/>
  <circle cx="152" cy="74" r="14" fill="#14213D"/>
  <circle cx="152" cy="74" r="5" fill="#D9DEE8"/>
  <rect x="10" y="58" width="10" height="6" rx="2" fill="#FFFFFF"/>
  <rect x="178" y="58" width="8" height="6" rx="2" fill="#D64545"/>
</svg>
