<svg xmlns="http://www.w3.org/2000/svg" viewBox="0 0 200 100" width="200" height="100">
  <ellipse cx="100" cy="86" rx="80" ry="6" fill="#14213D" opacity="0.08"/>
  <path d="M26 70 Q26 50 44 48 L58 30 Q64 24 74 24 L118 24 Q126 24 132 30 L146 48 Q168 50 168 70 Z" fill="#5B6472"/>
  <path d="M62 48 L72 30 L114 30 L128 48 Z" fill="#14213D"/>
  <rect x="66" y="34" width="18" height="11" rx="1" fill="#AFC4E8"/>
  <rect x="90" y="34" width="26" height="11" rx="1" fill="#AFC4E8"/>
  <circle cx="58" cy="72" r="13" fill="#14213D"/>
  <circle cx="58" cy="72" r="4.5" fill="#D9DEE8"/>
  <circle cx="136" cy="72" r="13" fill="#14213D"/>
  <circle cx="136" cy="72" r="4.5" fill="#D9DEE8"/>
  <rect x="26" y="58" width="9" height="5" rx="2" fill="#FFFFFF"/>
  <rect x="159" y="58" width="9" height="5" rx="2" fill="#D64545"/>
</svg>
