<svg xmlns="http://www.w3.org/2000/svg" viewBox="0 0 200 100" width="200" height="100">
  <ellipse cx="100" cy="86" rx="88" ry="6" fill="#14213D" opacity="0.08"/>
  <path d="M18 70 Q18 46 40 44 L58 26 Q66 20 78 20 L126 20 Q138 20 146 28 L162 44 Q182 46 182 70 Z" fill="#F2A63A"/>
  <path d="M62 44 L74 26 L122 26 L140 44 Z" fill="#14213D"/>
  <rect x="66" y="30" width="24" height="12" rx="1" fill="#AFC4E8"/>
  <rect x="94" y="30" width="34" height="12" rx="1" fill="#AFC4E8"/>
  <circle cx="55" cy="72" r="14" fill="#14213D"/>
  <circle cx="55" cy="72" r="5" fill="#D9DEE8"/>
  <circle cx="145" cy="72" r="14" fill="#14213D"/>
  <circle cx="145" cy="72" r="5" fill="#D9DEE8"/>
  <rect x="18" y="58" width="10" height="6" rx="2" fill="#FFFFFF"/>
  <rect x="172" y="58" width="10" height="6" rx="2" fill="#D64545"/>
</svg>
