<svg xmlns="http://www.w3.org/2000/svg" viewBox="0 0 24 24" fill="#25D366"><path d="M12 2a10 10 0 0 0-8.6 15L2 22l5.2-1.4A10 10 0 1 0 12 2zm0 18.1a8.1 8.1 0 0 1-4.1-1.1l-.3-.2-3 .8.8-2.9-.2-.3A8.1 8.1 0 1 1 12 20.1z"/><path d="M17 14.4c-.3-.1-1.6-.8-1.8-.9-.2-.1-.4-.1-.6.1-.2.2-.6.9-.8 1.1-.1.2-.3.2-.5.1-1.4-.7-2.3-1.2-3.2-2.8-.2-.4.2-.4.6-1.2.1-.2 0-.4 0-.5-.1-.1-.6-1.4-.8-1.9-.2-.5-.4-.4-.6-.4h-.5c-.2 0-.5.1-.7.3-.2.2-1 1-1 2.3 0 1.4 1 2.7 1.1 2.9.1.2 2 3.1 4.9 4.3.7.3 1.2.5 1.6.6.7.2 1.3.2 1.8.1.5-.1 1.6-.6 1.8-1.3.2-.6.2-1.1.2-1.2-.1-.1-.3-.2-.5-.3z"/></svg>
